Coordinates
version=1
nRows=13
nColumns=63
inDegrees=yes

Units are S.I. units (second, meters, Newtons, ...)
If the header above contains a line with 'inDegrees', this indicates whether rotational values are in degrees (yes) or radians (no).

endheader
time	pelvis_tilt	pelvis_list	pelvis_rotation	pelvis_tx	pelvis_ty	pelvis_tz	hip_flexion_r	hip_adduction_r	hip_rotation_r	knee_angle_r	knee_angle_r_beta	ankle_angle_r	subtalar_angle_r	mtp_angle_r	hip_flexion_l	hip_adduction_l	hip_rotation_l	knee_angle_l	knee_angle_l_beta	ankle_angle_l	subtalar_angle_l	mtp_angle_l	L5_S1_Flex_Ext	L5_S1_Lat_Bending	L5_S1_axial_rotation	L4_L5_Flex_Ext	L4_L5_Lat_Bending	L4_L5_axial_rotation	L3_L4_Flex_Ext	L3_L4_Lat_Bending	L3_L4_axial_rotation	L2_L3_Flex_Ext	L2_L3_Lat_Bending	L2_L3_axial_rotation	L1_L2_Flex_Ext	L1_L2_Lat_Bending	L1_L2_axial_rotation	L1_T12_Flex_Ext	L1_T12_Lat_Bending	L1_T12_axial_rotation	Abs_r3	Abs_r2	Abs_r1	Abs_t1	Abs_t2	neck_flexion	neck_bending	neck_rotation	arm_flex_r	arm_add_r	arm_rot_r	elbow_flex_r	pro_sup_r	wrist_flex_r	wrist_dev_r	arm_flex_l	arm_add_l	arm_rot_l	elbow_flex_l	pro_sup_l	wrist_flex_l	wrist_dev_l
1.983333	0.351237	-1.262286	88.148517	0.205882	0.632472	0.641804	2.829730	3.311935	-0.203396	0.974221	0.017003	17.158350	-9.864176	0.000000	2.522542	-2.149170	-11.738449	1.130750	0.019735	26.683728	12.954328	0.000000	0.006036	0.279277	-0.285358	0.011209	0.371438	-0.303193	0.009916	0.679033	-0.303193	0.006899	0.679033	-0.249688	0.005605	0.569501	-0.231853	0.003449	0.432600	-0.214018	0.043114	3.159234	-1.587074	0.000000	0.000000	12.679905	0.470219	1.459306	29.763949	-11.674027	-2.495990	100.168186	74.925865	1.037597	15.615645	32.794584	-12.673494	-4.961561	97.867679	83.732495	-4.048338	11.069756
2.000000	0.265112	-1.291139	87.736825	0.206372	0.632463	0.641883	2.897053	3.246531	0.303012	1.025138	0.017892	17.001647	-9.875739	0.000000	2.493437	-2.062036	-12.264856	1.112321	0.019414	26.660426	12.898041	0.000000	0.012186	0.266886	-0.255059	0.022630	0.354959	-0.271000	0.020020	0.648907	-0.271000	0.013927	0.648907	-0.223177	0.011316	0.544234	-0.207235	0.006963	0.413407	-0.191294	0.087041	3.019070	-1.418562	0.000000	0.000000	12.601038	0.627032	1.537374	29.861148	-11.447820	-2.393711	100.317072	74.571435	1.040431	16.240021	32.651146	-12.933123	-5.062632	98.083898	83.940441	-3.935399	11.053699
2.016667	0.181327	-1.332215	87.274615	0.206876	0.632448	0.641972	2.986452	3.184394	0.837617	1.086223	0.018958	16.886526	-9.856831	0.000000	2.470468	-1.979506	-12.867769	1.099167	0.019184	26.627304	12.836877	0.000000	0.017187	0.255756	-0.226640	0.031918	0.340155	-0.240805	0.028237	0.621844	-0.240805	0.019643	0.621844	-0.198310	0.015960	0.521537	-0.184145	0.009821	0.396165	-0.169980	0.122767	2.893158	-1.260502	0.000000	0.000000	12.574387	0.755052	1.628364	29.997781	-11.215998	-2.198711	100.431835	74.295208	1.011878	16.732219	32.462737	-13.249089	-5.174606	98.375025	84.107699	-3.908789	10.963003
2.033333	0.116376	-1.400585	86.857805	0.207264	0.632400	0.642087	3.103014	3.141150	1.403883	1.142075	0.019933	16.735661	-10.016559	0.000000	2.484078	-1.915918	-13.439967	1.091943	0.019058	26.585321	12.789469	0.000000	0.023854	0.247957	-0.209318	0.044300	0.329783	-0.222401	0.039190	0.602883	-0.222401	0.027263	0.602883	-0.183154	0.022151	0.505634	-0.170071	0.013630	0.384086	-0.156989	0.170389	2.804940	-1.164166	0.000000	0.000000	12.597018	0.872060	1.747959	30.140313	-11.024013	-1.939571	100.537209	74.128414	0.935539	17.048244	32.241404	-13.555483	-5.282459	98.715040	84.177746	-3.971995	10.832152
2.050000	0.062704	-1.465692	86.432157	0.207621	0.632363	0.642231	3.222932	3.106841	1.919407	1.210948	0.021135	16.603297	-10.123530	0.000000	2.498035	-1.866824	-14.015601	1.092882	0.019074	26.541697	12.743310	0.000000	0.027962	0.242566	-0.188305	0.051928	0.322613	-0.200074	0.045939	0.589776	-0.200074	0.031958	0.589776	-0.164767	0.025965	0.494641	-0.152998	0.015977	0.375735	-0.141229	0.199730	2.743960	-1.047298	0.000000	0.000000	12.642516	0.944732	1.866138	30.273301	-10.882496	-1.653740	100.640768	74.140208	0.816093	17.240387	32.001081	-13.866801	-5.333037	99.069956	84.127267	-4.102850	10.627177
2.066667	0.019305	-1.551105	86.060999	0.207872	0.632291	0.642428	3.368836	3.079005	2.344150	1.290491	0.022523	16.464456	-10.252030	0.000000	2.545800	-1.827510	-14.496182	1.091528	0.019051	26.485625	12.674482	0.000000	0.033357	0.238880	-0.168072	0.061947	0.317710	-0.178576	0.054802	0.580813	-0.178576	0.038123	0.580813	-0.147063	0.030975	0.487124	-0.136558	0.019060	0.370025	-0.126054	0.238263	2.702257	-0.934765	0.000000	0.000000	12.725453	1.017367	1.966544	30.351897	-10.817645	-1.396371	100.786806	74.362318	0.697744	17.325835	31.750453	-14.118728	-5.317352	99.416052	83.945800	-4.341629	10.328404
2.083333	-0.006302	-1.654027	85.841412	0.207891	0.632180	0.642664	3.528177	3.057679	2.521238	1.371792	0.023942	16.329600	-10.320446	0.000000	2.647255	-1.803341	-14.839939	1.109343	0.019362	26.444590	12.700904	0.000000	0.040098	0.237570	-0.172074	0.074466	0.315968	-0.182828	0.065877	0.577628	-0.182828	0.045828	0.577628	-0.150564	0.037235	0.484453	-0.139810	0.022912	0.367996	-0.129055	0.286415	2.687439	-0.957022	0.000000	0.000000	12.836477	1.112315	2.111830	30.391692	-10.828543	-1.103929	100.973441	74.558360	0.494266	17.365574	31.457778	-14.305235	-5.319667	99.808667	83.751634	-4.613640	10.127077
2.100000	-0.014807	-1.750376	85.699809	0.207810	0.632059	0.643003	3.679056	3.049085	2.530913	1.447702	0.025267	16.197384	-10.306026	0.000000	2.765099	-1.798007	-15.114653	1.129180	0.019708	26.404161	12.797557	0.000000	0.044162	0.238440	-0.186461	0.082013	0.317125	-0.198115	0.072553	0.579743	-0.198115	0.050472	0.579743	-0.163153	0.041009	0.486227	-0.151500	0.025234	0.369344	-0.139846	0.315443	2.697281	-1.037041	0.000000	0.000000	12.937094	1.213785	2.312786	30.408460	-10.880217	-0.816398	101.180611	74.816804	0.246194	17.411156	31.155729	-14.456505	-5.320218	100.206688	83.563031	-4.921390	10.035935
2.116667	-0.013012	-1.854534	85.694204	0.207556	0.631897	0.643427	3.832675	3.043766	2.513756	1.514236	0.026428	16.000596	-10.504077	0.000000	2.927059	-1.800722	-15.245891	1.164619	0.020326	26.379577	12.962596	0.000000	0.048463	0.239585	-0.221181	0.090000	0.318647	-0.235005	0.079619	0.582526	-0.235005	0.055388	0.582526	-0.193534	0.045002	0.488561	-0.179710	0.027692	0.371116	-0.165886	0.346164	2.710228	-1.230145	0.000000	0.000000	13.051075	1.360357	2.524089	30.385817	-10.976319	-0.530534	101.409110	74.986384	-0.060671	17.431771	30.839599	-14.564258	-5.330862	100.619426	83.397978	-5.257946	10.065799
2.133333	0.004453	-1.965082	85.823196	0.207103	0.631694	0.643949	3.987729	3.044338	2.389872	1.570418	0.027409	15.780050	-10.776563	0.000000	3.132671	-1.815620	-15.225465	1.217311	0.021246	26.372319	13.185479	0.000000	0.052827	0.242185	-0.275386	0.098104	0.322106	-0.292598	0.086789	0.588849	-0.292598	0.060375	0.588849	-0.240963	0.049055	0.493864	-0.223751	0.030185	0.375145	-0.206540	0.377335	2.739645	-1.531616	0.000000	0.000000	13.185003	1.528635	2.736603	30.333937	-11.118085	-0.245165	101.641524	75.052360	-0.420978	17.392487	30.508181	-14.605428	-5.384660	101.043279	83.290891	-5.585743	10.255821
2.150000	0.031804	-2.073882	86.071492	0.206479	0.631461	0.644567	4.136181	3.045574	2.178214	1.617357	0.028228	15.536304	-11.122106	0.000000	3.368339	-1.835265	-15.036899	1.281490	0.022366	26.378752	13.404623	0.000000	0.056666	0.245350	-0.343783	0.105234	0.326316	-0.365269	0.093096	0.596544	-0.365269	0.064763	0.596544	-0.300810	0.052620	0.500318	-0.279324	0.032379	0.380047	-0.257837	0.404756	2.775451	-1.912018	0.000000	0.000000	13.331265	1.707758	2.913268	30.255127	-11.308585	0.030554	101.838333	74.884681	-0.759749	17.207679	30.168933	-14.595994	-5.435472	101.444579	83.215855	-5.986428	10.485399
2.166667	0.055690	-2.172531	86.429034	0.205701	0.631202	0.645257	4.268694	3.033086	1.841991	1.658434	0.028945	15.289875	-11.478470	0.000000	3.621190	-1.845391	-14.728553	1.357021	0.023684	26.407935	13.645617	0.000000	0.058954	0.247786	-0.423456	0.109484	0.329556	-0.449922	0.096856	0.602468	-0.449922	0.067379	0.602468	-0.370524	0.054745	0.505286	-0.344058	0.033687	0.383821	-0.317592	0.421105	2.803008	-2.355137	0.000000	0.000000	13.489937	1.901708	3.075473	30.150113	-11.537172	0.276679	102.003798	74.498904	-1.069110	16.940980	29.811783	-14.519606	-5.517421	101.854835	83.180939	-6.419805	10.892937
2.183333	0.078523	-2.258911	86.855393	0.204823	0.630925	0.646010	4.384167	3.012888	1.506620	1.694827	0.029580	14.998832	-11.974204	0.000000	3.881851	-1.849918	-14.367182	1.443100	0.025187	26.467154	13.920243	0.000000	0.060069	0.250296	-0.502062	0.111554	0.332893	-0.533441	0.098687	0.608569	-0.533441	0.068653	0.608569	-0.439304	0.055780	0.510403	-0.407926	0.034323	0.387708	-0.376547	0.429065	2.831395	-2.792320	0.000000	0.000000	13.633460	2.079203	3.211807	30.009651	-11.822823	0.469835	102.118477	73.906523	-1.287051	16.529147	29.438821	-14.366328	-5.590979	102.217148	83.141844	-6.856255	11.306869
